<svg width="32" height="32" viewBox="0 0 32 32" fill="none" xmlns="http://www.w3.org/2000/svg">
<path d="M16.0002 10.793C13.133 10.793 10.7932 13.1328 10.7932 16C10.7932 18.8672 13.133 21.207 16.0002 21.207C18.8674 21.207 21.2072 18.8672 21.2072 16C21.2072 13.1328 18.8674 10.793 16.0002 10.793ZM31.6174 16C31.6174 13.8438 31.6369 11.707 31.5158 9.55469C31.3947 7.05469 30.8244 4.83594 28.9963 3.00781C27.1642 1.17578 24.9494 0.609377 22.4494 0.488283C20.2932 0.36719 18.1564 0.386721 16.0041 0.386721C13.8478 0.386721 11.7111 0.36719 9.55878 0.488283C7.05878 0.609377 4.84003 1.17969 3.0119 3.00781C1.17987 4.83985 0.613467 7.05469 0.492373 9.55469C0.371279 11.7109 0.39081 13.8477 0.39081 16C0.39081 18.1523 0.371279 20.293 0.492373 22.4453C0.613467 24.9453 1.18378 27.1641 3.0119 28.9922C4.84394 30.8242 7.05878 31.3906 9.55878 31.5117C11.715 31.6328 13.8517 31.6133 16.0041 31.6133C18.1603 31.6133 20.2971 31.6328 22.4494 31.5117C24.9494 31.3906 27.1682 30.8203 28.9963 28.9922C30.8283 27.1602 31.3947 24.9453 31.5158 22.4453C31.6408 20.293 31.6174 18.1563 31.6174 16V16ZM16.0002 24.0117C11.5666 24.0117 7.98847 20.4336 7.98847 16C7.98847 11.5664 11.5666 7.98828 16.0002 7.98828C20.4338 7.98828 24.0119 11.5664 24.0119 16C24.0119 20.4336 20.4338 24.0117 16.0002 24.0117ZM24.34 9.53125C23.3049 9.53125 22.4689 8.69532 22.4689 7.66016C22.4689 6.625 23.3049 5.78907 24.34 5.78907C25.3752 5.78907 26.2111 6.625 26.2111 7.66016C26.2114 7.90596 26.1632 8.14941 26.0693 8.37656C25.9754 8.60371 25.8376 8.8101 25.6638 8.98391C25.49 9.15772 25.2836 9.29553 25.0564 9.38945C24.8293 9.48338 24.5858 9.53156 24.34 9.53125V9.53125Z" fill="black"/>
</svg>
